<?xml version="1.0" ?><!DOCTYPE svg  PUBLIC '-//W3C//DTD SVG 1.1//EN'  'http://www.w3.org/Graphics/SVG/1.1/DTD/svg11.dtd'><svg height="512px" style="enable-background:new 0 0 512 512;" version="1.1" viewBox="0 0 512 512" width="512px" xml:space="preserve" xmlns="http://www.w3.org/2000/svg" xmlns:xlink="http://www.w3.org/1999/xlink"><g id="_x35_34_x2C__Author_x2C__book_x2C__open_x2C__story_x2C__storytelling"><g><path d="M65.315,123.185h1.537v191.515v0.272l0,0v0.272v0.025v0.247v0.025    l0.024,0.247v0.025v0.248v0.024l0.024,0.249v0.049l0.025,0.224v0.049l0.024,0.224v0.049l0.026,0.223v0.051l0.024,0.223    l0.025,0.049l0.024,0.225v0.049l0.049,0.198v0.074l0.024,0.198l0.026,0.074l0.024,0.199v0.074l0.049,0.198v0.05l0.049,0.197    l0.025,0.075l0.024,0.198l0.026,0.074l0.049,0.173v0.1l0.049,0.173l0.024,0.075l0.049,0.174l0.125,0.521l0.025,0.099l0.049,0.149    l0.026,0.1l0.223,0.644l0.025,0.124l0.049,0.124c1.092,3.173,2.901,6.023,5.231,8.329l0,0l0.174,0.198l0,0l0.198,0.173l0,0    l0.174,0.174l0,0l0.198,0.174l0,0l0.198,0.174l0,0l0.198,0.174l0,0l0.198,0.172l0,0l0.198,0.174l0,0l0.198,0.174h0.025    l0.198,0.148l0,0l0.198,0.174l0,0l0.198,0.149h0.024l0.198,0.173l0,0l0.223,0.148l0,0l0.198,0.148h0.024l0.198,0.149l0,0    l0.223,0.148l0,0l0.223,0.149l0,0l0.225,0.123l0,0l0.223,0.149l0,0l0.223,0.124l0,0l0.223,0.148l0,0l0.248,0.124l0,0l0.223,0.124    l0,0l0.225,0.123l0,0l0.247,0.125l0,0l0.223,0.124l0,0l0.247,0.124l0,0l0.248,0.099l0,0l0.225,0.124h0.024l0.223,0.099l0,0    l0.248,0.125l0,0l0.247,0.099l0,0l0.25,0.1l0,0l0.247,0.1l0,0l0.248,0.073l0,0l0.248,0.099l0,0l0.249,0.074h0.024l0.248,0.1l0,0    l0.248,0.074l0,0l0.249,0.075h0.024l0.248,0.075l0,0l0.248,0.073l0,0l0.273,0.074l0,0l0.272,0.075l0,0l0.248,0.049l0,0    l0.274,0.074l0,0l0.247,0.051h0.025l0.248,0.049l0,0l0.273,0.05l0,0l0.272,0.049l0,0l0.274,0.05l0,0l0.272,0.05l0,0l0.272,0.024    l0,0l0.273,0.025l0,0l0.272,0.024l0,0l0.274,0.05l0,0h0.272l0,0l0.272,0.025l0,0l0.274,0.023H87.6l0.272,0.025l0,0h0.274l0,0    h0.272h0.024h0.272l0,0h148.78h0.024h0.051h0.049h0.049h0.049h0.076h0.049h0.049h0.051h0.049h0.024h0.024h0.025h0.049h0.051h0.049    h0.049l0.075-0.025h0.049h0.049h0.049h0.051h0.025h0.024h0.024h0.049h0.049l0.051-0.023h0.049h0.074h0.051h0.049h0.049    c0.445-0.051,0.917-0.075,1.363-0.149v12.841c-0.098,4.462-2.007,8.551-4.982,11.526c-3.05,3.073-7.289,4.981-11.948,4.981H65.315    c-4.661,0-8.898-1.908-11.973-4.981c-3.074-3.074-4.982-7.313-4.982-11.973V140.141c0-4.587,1.858-8.752,4.808-11.801l0.174-0.174    C56.417,125.093,60.654,123.185,65.315,123.185 M242.625,329.597v0.024h-0.025h-0.049l-0.025,0.025h-0.049l-0.025,0.025l0,0    h-0.051l-0.024,0.023h-0.024c-1.19,0.397-2.429,0.646-3.719,0.744h-0.024l-0.421,0.025h-0.025h-0.051h-0.024h-0.024h-0.025h-0.049    h-0.049h-0.026h-0.024h-0.025h-0.049h-0.024h-0.049h-0.051l0,0h-0.049h-0.024h-0.049h-0.051h-0.024H88.714l0,0h-0.198l0,0h-0.198    h-0.024h-0.198l0,0l-0.199-0.025l0,0h-0.198l0,0l-0.198-0.025l0,0h-0.198l0,0l-0.198-0.023l0,0l-0.198-0.025l0,0l-0.198-0.024l0,0    l-0.198-0.025l0,0l-0.198-0.024l0,0l-0.174-0.025h-0.024l-0.174-0.049l0,0l-0.198-0.025l0,0l-0.198-0.049l0,0l-0.198-0.025l0,0    l-0.174-0.049l0,0l-0.198-0.051l0,0l-0.198-0.049l0,0l-0.172-0.05l0,0l-0.2-0.05l0,0l-0.172-0.049l0,0l-0.199-0.074l0,0    l-0.173-0.051l0,0l-0.198-0.049l0,0l-0.174-0.074l0,0l-0.174-0.074l0,0l-0.174-0.049h-0.024l-0.174-0.075l0,0l-0.174-0.075l0,0    l-0.173-0.074l0,0l-0.174-0.073l0,0l-0.172-0.075l0,0l-0.174-0.074l0,0l-0.174-0.1l0,0l-0.174-0.074l0,0l-0.173-0.1l0,0    l-0.174-0.074l0,0l-0.174-0.099l0,0l-0.149-0.1H81.03l-0.147-0.073l0,0l-0.173-0.1l0,0l-0.149-0.1h-0.024l-0.149-0.099l0,0    l-0.149-0.099l0,0l-0.174-0.125l0,0l-0.147-0.1l0,0l-0.149-0.099h-0.025l-0.149-0.124l0,0l-0.149-0.099l0,0l-0.149-0.124l0,0    l-0.147-0.1l0,0l-0.149-0.123l0,0l-0.149-0.125l0,0l-0.149-0.123l0,0l-0.147-0.1l0,0l-0.149-0.123l0,0l-0.149-0.125l0,0    l-0.123-0.148h-0.026l-0.123-0.123l0,0l-0.149-0.125l0,0l-0.125-0.124l0,0l-0.123-0.147h-0.025l-0.026-0.026    c-1.586-1.586-2.825-3.494-3.593-5.602l-0.049-0.1l-0.024-0.074l-0.025-0.099l-0.149-0.446l-0.049-0.099l-0.024-0.075    l-0.026-0.124l-0.024-0.074l-0.025-0.1l-0.098-0.396l-0.026-0.049l-0.024-0.125l-0.024-0.073l-0.025-0.124l-0.024-0.05    l-0.024-0.124v-0.074l-0.076-0.322v-0.05l-0.024-0.149l-0.025-0.049l-0.049-0.348v-0.024l-0.024-0.147l-0.025-0.051v-0.148    l-0.024-0.05v-0.148v-0.025l-0.026-0.173v-0.025l-0.024-0.173v-0.025l-0.025-0.173v-0.025v-0.174v-0.024l-0.024-0.174v-0.024    v-0.198l0,0v-0.198l0,0l-0.024-0.198v-0.198V120.136v-0.075v-1.636c0-4.337,1.785-8.278,4.636-11.13    c2.875-2.85,6.815-4.636,11.153-4.636h148.78c4.337,0,8.279,1.761,11.13,4.636c2.851,2.852,4.636,6.793,4.636,11.13v196.274v0.174    v0.024v0.124v0.074v0.074l-0.024,0.124v0.05v0.148v0.024v0.124v0.074l-0.026,0.074v0.125v0.049l-0.024,0.149l0,0v0.148v0.05    l-0.025,0.1v0.099l-0.024,0.074v0.124v0.025l-0.024,0.148v0.025l-0.025,0.123v0.049l-0.1,0.546l-0.025,0.05l-0.098,0.545v0.025    c-0.695,2.925-2.181,5.527-4.239,7.586l-0.125,0.147l-0.024,0.024l-0.074,0.074l0,0l-0.074,0.075l-0.051,0.024l-0.049,0.051    l-0.049,0.073h-0.025l-0.075,0.074l-0.024,0.024l-0.049,0.051l-0.076,0.049v0.025l-0.098,0.049v0.025l-0.074,0.049l-0.125,0.125    l-0.049,0.025l0,0l-0.075,0.073l-0.049,0.025l-0.024,0.024l-0.174,0.148l-0.024,0.025l-0.074,0.049l-0.051,0.051h-0.025    l-0.073,0.073h-0.025l-0.075,0.05l-0.049,0.049l-0.024,0.025l-0.72,0.496l-0.024,0.024l-0.049,0.024l-0.074,0.051l-0.026,0.024    l-0.372,0.223l0,0l-0.099,0.05l-0.272,0.148l-0.026,0.024l-0.074,0.05C244.336,328.928,243.494,329.299,242.625,329.597z     M104.853,223.924c-1.687,0-3.05-1.363-3.05-3.049c0-1.66,1.363-3.024,3.05-3.024h68.118c1.686,0,3.049,1.364,3.049,3.024    c0,1.686-1.363,3.049-3.049,3.049H104.853z M104.853,204.02c-1.687,0-3.05-1.363-3.05-3.049s1.363-3.049,3.05-3.049h39.066    c1.686,0,3.05,1.363,3.05,3.049s-1.364,3.049-3.05,3.049H104.853z M229.265,146.287H94.293v28.209h134.972V146.287z     M91.243,140.189h141.071c1.66,0,3.048,1.388,3.048,3.049v34.307c0,1.686-1.388,3.049-3.048,3.049H91.243    c-1.685,0-3.048-1.363-3.048-3.049v-34.307C88.195,141.577,89.559,140.189,91.243,140.189z M104.853,299.554    c-1.687,0-3.05-1.363-3.05-3.049c0-1.661,1.363-3.024,3.05-3.024h95.732c1.687,0,3.05,1.363,3.05,3.024    c0,1.686-1.363,3.049-3.05,3.049H104.853z M104.853,283.565c-1.687,0-3.05-1.363-3.05-3.05c0-1.686,1.363-3.049,3.05-3.049h95.732    c1.687,0,3.05,1.363,3.05,3.049c0,1.687-1.363,3.05-3.05,3.05H104.853z M289.426,289.439c-1.685,0-3.048-1.389-3.048-3.049    c0-1.686,1.363-3.049,3.048-3.049h125.751c1.662,0,3.025,1.363,3.025,3.049c0,1.66-1.363,3.049-3.025,3.049H289.426z     M289.426,257.414c-1.685,0-3.048-1.364-3.048-3.025c0-1.686,1.363-3.049,3.048-3.049h125.751c1.662,0,3.025,1.363,3.025,3.049    c0,1.661-1.363,3.025-3.025,3.025H289.426z M289.426,225.411c-1.685,0-3.048-1.363-3.048-3.049c0-1.661,1.363-3.049,3.048-3.049    h125.751c1.662,0,3.025,1.388,3.025,3.049c0,1.686-1.363,3.049-3.025,3.049H289.426z M289.426,193.41    c-1.685,0-3.048-1.363-3.048-3.049c0-1.661,1.363-3.049,3.048-3.049h57.733c1.66,0,3.048,1.388,3.048,3.049    c0,1.686-1.388,3.049-3.048,3.049H289.426z M289.426,161.408c-1.685,0-3.048-1.363-3.048-3.049s1.363-3.05,3.048-3.05h57.733    c1.66,0,3.048,1.364,3.048,3.05s-1.388,3.049-3.048,3.049H289.426z M423.903,102.659h-148.78c-4.338,0-8.279,1.786-11.13,4.636    c-2.851,2.852-4.635,6.793-4.635,11.13v196.274v0.198v0.124v0.074v0.074c0.123,4.14,1.883,7.908,4.635,10.66    c1.71,1.709,3.793,3.023,6.124,3.816l0.049,0.025c1.116,0.371,2.306,0.619,3.52,0.742h0.025h0.024h0.024l0.322,0.025h0.05l0,0    h0.075h0.049l0.149,0.025h0.049h0.05h0.024h0.024h0.024h0.051h0.024h0.05h0.024h0.024h0.051h0.024h0.05h0.049l0,0h0.024H275h0.05    h0.024h0.049h148.78c4.338,0,8.279-1.76,11.13-4.635c0.718-0.695,1.364-1.463,1.935-2.307v-0.024    c0.271-0.396,0.544-0.817,0.769-1.239l0.024-0.05l0.147-0.298l0.051-0.049l0.049-0.1l0.024-0.074l0.05-0.1l0.024-0.074    l0.225-0.445l0.024-0.075l0.049-0.099l0.024-0.074l0.074-0.174l0.051-0.1l0.024-0.074l0.049-0.1l0.025-0.074l0.024-0.099    l0.051-0.1l0.024-0.074l0.024-0.099l0.024-0.074l0.05-0.1l0.024-0.099l0.024-0.099l0.026-0.075l0.049-0.099l0.024-0.075    l0.025-0.124l0.024-0.074l0.024-0.1l0.024-0.074l0.026-0.123l0.024-0.075l0.024-0.099l0.024-0.074l0.025-0.125l0.024-0.073    l0.024-0.124v-0.05l0.051-0.124v-0.074l0.024-0.125l0.024-0.049l0.025-0.148v-0.05l0.024-0.149l0.024-0.049l0.024-0.148v-0.025    l0.024-0.148v-0.05l0.026-0.147v-0.051l0.024-0.148v-0.05l0.024-0.148v-0.025l0.025-0.173v-0.025l0.024-0.173v-0.025v-0.173    l0.024-0.025v-0.174v-0.024v-0.174v-0.024l0.024-0.198l0,0v-0.198l0,0v-0.198v-0.198V120.061v-1.636    c0-4.263-1.709-8.155-4.461-10.981l-0.174-0.148C432.183,104.445,428.241,102.659,423.903,102.659z M266.101,334.604    c-2.404-1.09-4.586-2.602-6.421-4.461c-1.288-1.289-2.429-2.752-3.371-4.339c-0.942,1.587-2.081,3.05-3.371,4.339l-0.198,0.198    l-0.074,0.05l-0.024,0.023l-0.622,0.57l-0.073,0.075l-0.323,0.272l-0.024,0.025l-0.818,0.669h-0.024    c-1.314,1.017-2.727,1.884-4.264,2.577v14.155v0.595v16.359h19.608v-16.954V334.604z M26.001,323.201    c0-1.66,1.388-3.049,3.048-3.049c1.687,0,3.05,1.389,3.05,3.049v40.281c0,4.66,1.907,8.898,4.982,11.973    c3.074,3.049,7.312,4.982,11.973,4.982c1.686,0,3.05,1.364,3.05,3.025c0,1.686-1.364,3.049-3.05,3.049    c-6.345,0-12.096-2.579-16.286-6.768c-4.164-4.165-6.766-9.941-6.766-16.262V323.201z M458.384,110.245    c-1.686,0-3.05-1.363-3.05-3.049c0-1.687,1.364-3.05,3.05-3.05h4.561c6.346,0,12.122,2.604,16.286,6.768l0.174,0.199    c4.09,4.164,6.595,9.84,6.595,16.087v61.476c0,1.686-1.364,3.049-3.05,3.049c-1.687,0-3.049-1.363-3.049-3.049V127.2    c0-4.586-1.835-8.775-4.81-11.824l-0.174-0.148c-3.074-3.074-7.312-4.982-11.973-4.982H458.384z M71.065,395.36    c-1.685,0-3.048-1.363-3.048-3.049s1.363-3.049,3.048-3.049h284.943c1.686,0,3.049,1.363,3.049,3.049s-1.363,3.049-3.049,3.049    H71.065z M237.916,409.341c-1.685,0-3.048-1.362-3.048-3.049c0-1.686,1.363-3.049,3.048-3.049h197.192    c1.687,0,3.05,1.363,3.05,3.049c0,1.687-1.363,3.049-3.05,3.049H237.916z M455.285,409.341c-1.687,0-3.05-1.362-3.05-3.049    c0-1.686,1.363-3.049,3.05-3.049h24.665c1.66,0,3.048,1.363,3.048,3.049c0,1.687-1.388,3.049-3.048,3.049H455.285z M59.836,408.92    c-1.685,0-3.048-1.364-3.048-3.05c0-1.685,1.363-3.049,3.048-3.049h93.428c1.685,0,3.048,1.364,3.048,3.049    c0,1.686-1.363,3.05-3.048,3.05H59.836z M445.766,123.185v191.515v0.272l0,0v0.272v0.025v0.247v0.025l-0.024,0.247v0.025    l-0.024,0.248v0.024v0.249v0.023l-0.024,0.249v0.049l-0.024,0.224v0.049l-0.025,0.223l-0.024,0.051l-0.024,0.223v0.049    l-0.026,0.225v0.049l-0.049,0.198v0.074l-0.024,0.198l-0.025,0.051l-0.024,0.223l-0.024,0.049l-0.024,0.224l-0.026,0.05    l-0.024,0.197l-0.024,0.075l-0.024,0.198l-0.025,0.074l-0.049,0.173v0.075l-0.051,0.197l-0.024,0.075l-0.049,0.174l-0.025,0.099    l-0.049,0.148l-0.024,0.1l-0.026,0.174l-0.024,0.074l-0.099,0.273l-0.024,0.148l-0.051,0.099l-0.049,0.149l-0.025,0.123    l-0.049,0.124l-0.024,0.124l-0.051,0.124l-0.049,0.124l-0.05,0.123l-0.049,0.124l-0.051,0.125l-0.024,0.124l-0.05,0.123    l-0.049,0.125l-0.051,0.123l-0.049,0.124l-0.05,0.124l-0.049,0.125l-0.051,0.123l-0.074,0.123l-0.049,0.1l-0.049,0.149    l-0.051,0.099l-0.074,0.148l-0.024,0.074l-0.075,0.148l-0.05,0.1l-0.073,0.149l-0.049,0.074l-0.076,0.148l-0.049,0.099    l-0.073,0.149l-0.026,0.075l-0.099,0.148l-0.024,0.074l-0.101,0.174l-0.024,0.049l-0.098,0.174l-0.051,0.049l-0.099,0.174    l-0.024,0.074l-0.101,0.148l-0.024,0.051l-0.123,0.174l-0.025,0.049l-0.099,0.174l-0.049,0.049l-0.101,0.174l-0.024,0.05    l-0.149,0.223l-0.123,0.174l-0.025,0.024l-0.123,0.174l-0.024,0.049l-0.125,0.174l-0.024,0.025l-0.149,0.197v0.025l-0.149,0.174    l-0.024,0.025l-0.147,0.172v0.025l-0.148,0.199h-0.025l-0.148,0.198l0,0l-0.174,0.198l0,0l-0.174,0.198l0,0l-0.174,0.198    l-0.174,0.198l0,0l-0.172,0.198l0,0l-0.174,0.174v0.024l-0.174,0.174h-0.024l-0.174,0.198c-0.918,0.941-1.934,1.785-3.025,2.527    l0,0l-0.421,0.298h-0.024l-0.198,0.149l0,0l-0.445,0.272l-0.25,0.124l0,0l-0.223,0.148l0,0l-0.223,0.124l-0.471,0.247l0,0    l-0.472,0.249l-0.223,0.124l0,0l-0.247,0.099l-0.248,0.124l-0.249,0.099l-0.471,0.224l-0.247,0.1l-0.247,0.074v0.025l-0.249,0.073    l0,0l-0.272,0.099l0,0l-0.247,0.074l-0.25,0.1l-0.247,0.074l0,0l-0.271,0.075l-0.249,0.075l-0.272,0.073l0,0l-0.247,0.074    l-0.274,0.075l-0.247,0.049l-0.272,0.074l0,0l-0.273,0.051l-0.271,0.049l-0.248,0.05l-0.273,0.049l-0.272,0.05l-0.271,0.05    l-0.273,0.024l-0.272,0.025l-0.273,0.024l-0.272,0.05h-0.271l-0.299,0.025l-0.271,0.023l-0.274,0.025h-0.271h-0.298h-0.272    h-148.78h-0.049l0,0h-0.024h-0.025H275l0,0h-0.051l0,0H274.9l0,0h-0.099l0,0h-0.026h-0.024h-0.024h-0.024h-0.024h-0.025h-0.024    l0,0h-0.051l0,0h-0.024h-0.024h-0.024h-0.024h-0.025h-0.024h-0.024h-0.026h-0.024l0,0l-0.073-0.025h-0.025h-0.075h-0.024h-0.024    h-0.024h-0.025h-0.024h-0.024h-0.026h-0.024l0,0h-0.024h-0.024h-0.024h-0.025l-0.024-0.023h-0.024h-0.124l0,0h-0.025h-0.024    h-0.024h-0.026h-0.024h-0.024h-0.024h-0.025l-0.024-0.025h-0.024h-0.149h-0.024h-0.024h-0.024    c-0.348-0.025-0.695-0.05-1.042-0.124v12.395v0.223c0.075,4.561,1.958,8.726,4.983,11.75c3.072,3.073,7.312,4.981,11.973,4.981    h158.148c4.661,0,8.9-1.908,11.973-4.981c3.074-3.074,4.983-7.313,4.983-11.973V140.141c0-4.587-1.859-8.752-4.834-11.801    l-0.149-0.174c-3.072-3.073-7.312-4.981-11.973-4.981H445.766z" style="fill-rule:evenodd;clip-rule:evenodd;"/></g></g><g id="Layer_1"/></svg>